<?xml version="1.0" standalone="no"?>
<!DOCTYPE svg PUBLIC "-//W3C//DTD SVG 20010904//EN"
 "http://www.w3.org/TR/2001/REC-SVG-20010904/DTD/svg10.dtd">
<svg version="1.0" xmlns="http://www.w3.org/2000/svg"
 width="1080.000000pt" height="1080.000000pt" viewBox="0 0 1080.000000 1080.000000"
 preserveAspectRatio="xMidYMid meet">
<metadata>
Created by potrace 1.16, written by Peter Selinger 2001-2019
</metadata>
<g transform="translate(0.000000,1080.000000) scale(0.100000,-0.100000)"
fill="#000000" stroke="none">
<path d="M6853 9765 c-29 -8 -76 -26 -105 -41 -99 -50 -149 -110 -383 -464
-348 -526 -1092 -1646 -1305 -1965 -106 -159 -206 -318 -221 -352 -60 -131
-58 -274 5 -408 18 -38 415 -644 883 -1345 930 -1396 905 -1361 1050 -1431 60
-29 80 -34 169 -37 75 -3 117 0 160 13 292 84 442 401 316 668 -16 34 -360
560 -764 1169 -545 820 -738 1117 -743 1146 -4 23 -1 54 8 78 7 21 274 431
592 909 1011 1521 925 1384 946 1513 25 152 -24 298 -138 411 -131 128 -308
179 -470 136z"/>
<path d="M3878 8920 c-165 -29 -303 -131 -376 -275 -55 -111 -52 16 -52 -2060
0 -1720 2 -1917 16 -1966 51 -172 193 -312 366 -359 29 -8 87 -11 155 -8 100
3 114 6 186 40 137 66 239 184 281 327 14 49 16 245 16 1965 0 1584 -3 1920
-14 1962 -44 167 -182 310 -343 357 -68 20 -175 28 -235 17z"/>
<path d="M7504 8317 c-17 -14 -69 -81 -116 -149 -123 -179 -345 -497 -663
-953 -153 -220 -283 -416 -289 -436 -12 -48 -4 -77 47 -151 717 -1054 1014
-1481 1038 -1494 64 -33 154 -10 189 49 20 31 20 62 20 1527 0 954 -4 1508
-10 1531 -5 19 -23 48 -40 64 -24 23 -41 30 -88 33 -51 4 -62 1 -88 -21z"/>
<path d="M9590 2845 c-36 -8 -108 -36 -160 -62 -76 -38 -111 -63 -175 -128
-135 -135 -193 -263 -203 -441 -14 -274 126 -512 378 -643 107 -56 184 -74
315 -75 126 0 202 16 310 68 148 70 254 175 324 321 52 108 66 170 65 300 0
128 -16 191 -75 306 -91 175 -274 314 -468 355 -83 17 -226 17 -311 -1z m234
-320 c101 -17 199 -96 249 -203 103 -220 -52 -480 -299 -500 -46 -3 -80 1
-135 18 -64 19 -81 29 -140 89 -60 60 -70 76 -89 140 -52 170 16 338 169 419
56 31 145 52 186 46 11 -1 38 -6 59 -9z"/>
<path d="M250 2180 l0 -660 170 0 170 0 0 198 0 198 43 48 42 49 180 -247 180
-246 208 0 c114 0 207 3 207 6 0 3 -119 169 -265 369 -146 201 -265 369 -265
374 0 5 109 128 243 273 133 145 248 271 256 281 13 16 0 17 -205 17 l-219 0
-200 -223 -200 -223 -3 223 -2 223 -170 0 -170 0 0 -660z"/>
<path d="M2120 2816 c-4 -13 -124 -307 -264 -654 -141 -347 -256 -633 -256
-636 0 -4 83 -6 184 -6 l184 0 34 93 34 92 260 3 260 2 34 -95 35 -95 187 0
186 0 -155 383 c-85 210 -205 507 -266 660 l-111 277 -168 0 c-168 0 -169 0
-178 -24z m251 -614 l66 -177 -135 -3 c-74 -1 -137 -1 -139 2 -3 2 26 86 63
185 37 100 70 178 73 175 3 -3 36 -85 72 -182z"/>
<path d="M3250 2181 l0 -661 170 0 170 0 0 175 0 175 84 0 85 0 123 -175 123
-175 203 0 c111 0 202 1 202 3 0 1 -63 90 -139 196 l-139 194 57 38 c152 101
228 307 188 509 -36 184 -127 292 -297 351 -62 22 -80 23 -447 27 l-383 4 0
-661z m730 324 c52 -30 82 -95 78 -168 -5 -61 -23 -95 -72 -131 -25 -19 -44
-21 -212 -24 l-184 -3 0 176 0 177 178 -4 c156 -3 181 -5 212 -23z"/>
<path d="M4700 2180 l0 -661 383 4 c419 4 416 3 540 69 129 69 221 185 274
343 24 73 27 95 27 235 1 178 -11 234 -76 361 -70 137 -198 240 -353 284 -50
15 -119 18 -427 22 l-368 5 0 -662z m705 309 c22 -8 63 -36 92 -64 68 -67 99
-158 90 -274 -8 -106 -31 -166 -87 -222 -69 -69 -120 -83 -310 -84 l-155 0 -3
320 c-1 176 0 326 3 333 7 19 311 11 370 -9z"/>
<path d="M6213 2403 c3 -380 6 -446 21 -497 87 -294 354 -452 685 -406 208 29
363 135 442 305 57 122 59 141 59 607 l0 428 -164 0 -165 0 -3 -407 c-4 -367
-6 -413 -22 -457 -41 -107 -141 -163 -275 -154 -108 8 -170 49 -213 143 -23
49 -23 56 -26 463 l-3 412 -170 0 -170 0 4 -437z"/>
<path d="M7680 2675 l0 -165 205 0 205 0 0 -495 0 -495 170 0 170 0 0 495 0
495 205 0 205 0 0 165 0 165 -580 0 -580 0 0 -165z"/>
</g>
</svg>
